<svg xmlns="http://www.w3.org/2000/svg" version="1.1" xmlns:xlink="http://www.w3.org/1999/xlink" xmlns:svgjs="http://svgjs.com/svgjs" width="1520" height="550" preserveAspectRatio="none" viewBox="0 0 1520 550"><g mask="url(&quot;#SvgjsMask1146&quot;)" fill="none"><rect width="1520" height="550" x="0" y="0" fill="url(#SvgjsLinearGradient1147)"></rect><path d="M268.29 653.41C421.95 612.26 463.61 196.98 701.85 187.69 940.09 178.4 918.63 256.44 1135.41 256.44 1352.19 256.44 1459.23 187.9 1568.97 187.69" stroke="rgba(51,121,194,0.58)" stroke-width="2"></path><path d="M449.62 572.99C631.39 550.57 735.45 141.9 1040.2 139.53 1344.94 137.16 1479.49 270.73 1630.77 271.53" stroke="rgba(51,121,194,0.58)" stroke-width="2"></path><path d="M761.17 585.15C866.02 561.86 814.41 296.03 1069.12 285.56 1323.82 275.09 1527.54 154.3 1685.01 153.56" stroke="rgba(51,121,194,0.58)" stroke-width="2"></path><path d="M467.27 584.76C646.27 550.94 731.73 99.83 1009.77 98.32 1287.81 96.81 1403.86 334.92 1552.27 340.32" stroke="rgba(51,121,194,0.58)" stroke-width="2"></path><path d="M366.44 646.91C491.87 645.33 605.81 501.7 846.7 501.64 1087.6 501.58 1086.84 570.39 1326.97 570.39 1567.1 570.39 1685.94 501.81 1807.23 501.64" stroke="rgba(51,121,194,0.58)" stroke-width="2"></path></g><defs><mask id="SvgjsMask1146"><rect width="1520" height="550" fill="#ffffff"></rect></mask><linearGradient x1="100%" y1="50%" x2="0%" y2="50%" gradientUnits="userSpaceOnUse" id="SvgjsLinearGradient1147"><stop stop-color="rgba(20, 30, 48, 1)" offset="0"></stop><stop stop-color="rgba(36, 59, 85, 1)" offset="1"></stop></linearGradient></defs></svg>